<?xml version="1.0" encoding="UTF-8" standalone="no"?>
<!DOCTYPE svg PUBLIC "-//W3C//DTD SVG 1.1//EN" "http://www.w3.org/Graphics/SVG/1.1/DTD/svg11.dtd">
<svg id="become_a_patron_4x1_black_logo_white_text_on_coral" width="100%" height="100%" viewBox="0 0 200 50" version="1.1" xmlns="http://www.w3.org/2000/svg">
    <rect id="background" width="100%" height="100%" fill="#ff424d"/>
    <g aria-labelledby="Patreon Logo" id="logo" fill="black">
        <rect x="16.34" y="16.667" width="3.054" height="16.667"/>
        <circle cx="27.415" cy="22.919" r="6.25"/>
    </g>
    <path aria-labelledby="Become a Patron" id="text" fill="white" d="M53.273,24.78c0.673,0.108 1.198,0.379 1.573,0.813c0.376,0.434 0.564,0.992 0.564,1.675c-0,0.859 -0.303,1.561 -0.908,2.108c-0.604,0.546 -1.478,0.819 -2.619,0.819l-4.873,0l-0,-10.39l4.683,-0c1.141,-0 2.002,0.246 2.583,0.739c0.58,0.493 0.87,1.139 0.87,1.939c0,0.556 -0.163,1.039 -0.49,1.449c-0.327,0.409 -0.788,0.692 -1.383,0.848Zm-2.239,-3.234l-1.551,0l-0,2.532l1.551,0c0.527,0 0.915,-0.117 1.164,-0.351c0.248,-0.234 0.373,-0.542 0.373,-0.922c-0,-0.381 -0.127,-0.685 -0.381,-0.915c-0.253,-0.229 -0.639,-0.344 -1.156,-0.344Zm0.161,6.908c0.537,-0 0.944,-0.127 1.222,-0.381c0.278,-0.253 0.417,-0.59 0.417,-1.01c0,-0.409 -0.136,-0.736 -0.41,-0.98c-0.273,-0.244 -0.663,-0.366 -1.17,-0.366l-1.771,0l-0,2.737l1.712,-0Zm8.254,-0.088l4.741,-0l0,1.829l-7.214,0l-0,-10.39l7.112,-0l-0,1.829l-4.639,0l-0,2.342l4.39,-0l0,1.814l-4.39,0l-0,2.576Zm10.8,2.078c-1.62,-0 -2.869,-0.488 -3.747,-1.464c-0.878,-0.975 -1.317,-2.297 -1.317,-3.965c0,-1.649 0.456,-2.971 1.369,-3.966c0.912,-0.995 2.153,-1.493 3.724,-1.493c1.307,0 2.366,0.334 3.176,1.003c0.809,0.668 1.283,1.578 1.419,2.729l-2.502,0.439c-0.078,-0.693 -0.303,-1.229 -0.673,-1.61c-0.371,-0.38 -0.864,-0.571 -1.478,-0.571c-0.781,0 -1.393,0.31 -1.837,0.93c-0.444,0.619 -0.666,1.461 -0.666,2.524c0,1.044 0.227,1.878 0.681,2.502c0.453,0.625 1.085,0.937 1.895,0.937c0.575,0 1.048,-0.188 1.419,-0.563c0.371,-0.376 0.61,-0.9 0.717,-1.574l2.503,0.542c-0.254,1.122 -0.783,2.002 -1.588,2.641c-0.805,0.639 -1.837,0.959 -3.095,0.959Zm14.341,-1.464c-0.927,0.976 -2.17,1.464 -3.731,1.464c-1.561,-0 -2.805,-0.49 -3.732,-1.471c-0.927,-0.98 -1.39,-2.305 -1.39,-3.973c-0,-1.668 0.463,-2.993 1.39,-3.973c0.927,-0.981 2.171,-1.471 3.732,-1.471c1.561,0 2.804,0.49 3.731,1.471c0.927,0.98 1.39,2.305 1.39,3.973c0,1.668 -0.463,2.995 -1.39,3.98Zm-5.634,-1.404c0.459,0.624 1.093,0.936 1.903,0.936c0.809,0 1.441,-0.31 1.895,-0.929c0.453,-0.62 0.68,-1.481 0.68,-2.583c0,-1.102 -0.227,-1.963 -0.68,-2.583c-0.454,-0.619 -1.086,-0.929 -1.895,-0.929c-0.81,-0 -1.444,0.31 -1.903,0.929c-0.458,0.62 -0.688,1.481 -0.688,2.583c0,1.093 0.23,1.951 0.688,2.576Zm8.532,2.619l-0,-10.39l3.395,-0l1.917,6.366c0.107,0.37 0.19,0.79 0.249,1.258l0.029,0c0.049,-0.419 0.137,-0.849 0.263,-1.288l1.83,-6.336l3.439,-0l-0,10.39l-2.254,0l0,-7.083c0,-0.429 0.02,-0.819 0.059,-1.171l-0.044,0c-0.03,0.303 -0.103,0.639 -0.22,1.01l-2.092,7.244l-2.079,0l-2.18,-7.244c-0.107,-0.292 -0.18,-0.624 -0.22,-0.995l-0.043,0c0.039,0.468 0.058,0.854 0.058,1.156l0,7.083l-2.107,0Zm15.761,-1.829l4.741,-0l0,1.829l-7.214,0l-0,-10.39l7.112,-0l-0,1.829l-4.639,0l-0,2.342l4.39,-0l0,1.814l-4.39,0l-0,2.576Zm16.536,1.829l-0.79,-2.429l-3.834,-0l-0.79,2.429l-2.473,0l3.775,-10.39l2.825,-0l3.775,10.39l-2.488,0Zm-4.053,-4.171l2.692,0l-0.951,-2.897c-0.185,-0.586 -0.312,-1.073 -0.38,-1.464l-0.03,0c-0.068,0.391 -0.195,0.878 -0.38,1.464l-0.951,2.897Zm15.366,-6.219c1.131,-0 2.036,0.297 2.714,0.893c0.678,0.595 1.017,1.385 1.017,2.37c0,1.034 -0.339,1.852 -1.017,2.452c-0.678,0.6 -1.602,0.9 -2.773,0.9l-2.078,-0l-0,3.775l-2.473,0l-0,-10.39l4.61,-0Zm-0.6,4.888c0.546,-0 0.973,-0.137 1.28,-0.41c0.307,-0.273 0.461,-0.654 0.461,-1.142c0,-0.487 -0.151,-0.868 -0.454,-1.141c-0.302,-0.273 -0.731,-0.41 -1.287,-0.41l-1.537,0l-0,3.103l1.537,-0Zm11.4,5.502l-0.791,-2.429l-3.834,-0l-0.79,2.429l-2.473,0l3.775,-10.39l2.825,-0l3.775,10.39l-2.487,0Zm-4.054,-4.171l2.693,0l-0.952,-2.897c-0.185,-0.586 -0.312,-1.073 -0.38,-1.464l-0.029,0c-0.069,0.391 -0.196,0.878 -0.381,1.464l-0.951,2.897Zm14.005,-6.219l-0,1.961l-3.029,-0l-0,8.429l-2.459,0l-0,-8.429l-3.015,-0l0,-1.961l8.503,-0Zm7.127,10.39l-1.991,-3.98l-1.492,-0l-0,3.98l-2.473,0l-0,-10.39l4.565,-0c1.278,-0 2.232,0.283 2.861,0.849c0.63,0.566 0.944,1.346 0.944,2.341c0,0.664 -0.175,1.249 -0.527,1.756c-0.351,0.508 -0.853,0.873 -1.507,1.098l2.298,4.346l-2.678,0Zm-3.483,-8.649l-0,2.971l1.595,0c1.151,0 1.727,-0.507 1.727,-1.522c-0,-0.966 -0.576,-1.449 -1.727,-1.449l-1.595,0Zm15.614,7.434c-0.927,0.976 -2.17,1.464 -3.731,1.464c-1.561,-0 -2.805,-0.49 -3.732,-1.471c-0.927,-0.98 -1.39,-2.305 -1.39,-3.973c-0,-1.668 0.463,-2.993 1.39,-3.973c0.927,-0.981 2.171,-1.471 3.732,-1.471c1.561,0 2.804,0.49 3.731,1.471c0.927,0.98 1.391,2.305 1.391,3.973c-0,1.668 -0.464,2.995 -1.391,3.98Zm-5.634,-1.404c0.459,0.624 1.093,0.936 1.903,0.936c0.809,0 1.441,-0.31 1.895,-0.929c0.453,-0.62 0.68,-1.481 0.68,-2.583c0,-1.102 -0.227,-1.963 -0.68,-2.583c-0.454,-0.619 -1.086,-0.929 -1.895,-0.929c-0.81,-0 -1.444,0.31 -1.903,0.929c-0.458,0.62 -0.688,1.481 -0.688,2.583c0,1.093 0.23,1.951 0.688,2.576Zm8.532,2.619l-0,-10.39l2.736,-0l3.337,5.927c0.312,0.585 0.522,1.034 0.629,1.346l0.03,0c-0,-0.127 -0.003,-0.337 -0.008,-0.629c-0.005,-0.293 -0.007,-0.527 -0.007,-0.703l-0,-5.941l2.268,-0l0,10.39l-2.634,0l-3.454,-5.985c-0.331,-0.625 -0.536,-1.049 -0.614,-1.273l-0.029,-0c-0,0.136 0.002,0.356 0.007,0.658c0.005,0.303 0.007,0.542 0.007,0.717l0,5.883l-2.268,0Z"/>
</svg>
