<svg xmlns="http://www.w3.org/2000/svg" viewBox="0 0 200 50"><rect width="100%" height="100%" fill="#fff"/><g fill="#ff424d" aria-labelledby="Patreon Logo"><path d="M16.34 16.667h3.054v16.667H16.34z"/><circle cx="27.415" cy="22.919" r="6.25"/></g><path d="M53.273 24.78q1.01.162 1.573.813.564.65.564 1.675 0 1.288-.908 2.108-.907.819-2.619.819H47.01v-10.39h4.683q1.712 0 2.583.739.87.74.87 1.939 0 .834-.49 1.449-.49.614-1.383.848m-2.239-3.234h-1.551v2.532h1.551q.79 0 1.164-.351.373-.352.373-.922t-.381-.915-1.156-.344m.161 6.908q.805 0 1.222-.381.417-.38.417-1.01 0-.614-.41-.98t-1.17-.366h-1.771v2.737zm8.254-.088h4.741v1.829h-7.214v-10.39h7.112v1.829h-4.639v2.342h4.39v1.814h-4.39zm10.8 2.078q-2.43 0-3.747-1.464t-1.317-3.965q0-2.474 1.369-3.966 1.368-1.493 3.724-1.493 1.96 0 3.176 1.003 1.214 1.002 1.419 2.729l-2.502.439q-.118-1.039-.673-1.61-.557-.57-1.478-.571-1.171 0-1.837.93-.666.929-.666 2.524 0 1.566.681 2.502.68.937 1.895.937.862 0 1.419-.563.556-.564.717-1.574l2.503.542q-.38 1.683-1.588 2.641-1.208.959-3.095.959M84.59 28.98q-1.39 1.464-3.731 1.464t-3.732-1.471q-1.39-1.47-1.39-3.973 0-2.502 1.39-3.973t3.732-1.471q2.341 0 3.731 1.471 1.39 1.47 1.39 3.973 0 2.502-1.39 3.98m-5.634-1.404q.688.936 1.903.936 1.214 0 1.895-.929.68-.93.68-2.583t-.68-2.583-1.895-.929-1.903.929q-.687.93-.688 2.583 0 1.639.688 2.576m8.532 2.619v-10.39h3.395l1.917 6.366q.16.556.249 1.258h.029q.074-.629.263-1.288l1.83-6.336h3.439v10.39h-2.254v-7.083q0-.643.059-1.171h-.044q-.045.454-.22 1.01l-2.092 7.244H91.98l-2.18-7.244a4.2 4.2 0 0 1-.22-.995h-.043q.058.703.058 1.156v7.083zm15.761-1.829h4.741v1.829h-7.214v-10.39h7.112v1.829h-4.639v2.342h4.39v1.814h-4.39zm16.536 1.829-.79-2.429h-3.834l-.79 2.429h-2.473l3.775-10.39h2.825l3.775 10.39zm-4.053-4.171h2.692l-.951-2.897a12 12 0 0 1-.38-1.464h-.03q-.102.586-.38 1.464zm15.366-6.219q1.697 0 2.714.893t1.017 2.37q0 1.552-1.017 2.452t-2.773.9h-2.078v3.775h-2.473v-10.39zm-.6 4.888q.82 0 1.28-.41t.461-1.142q0-.731-.454-1.141-.453-.41-1.287-.41h-1.537v3.103zm11.4 5.502-.791-2.429h-3.834l-.79 2.429h-2.473l3.775-10.39h2.825l3.775 10.39zm-4.054-4.171h2.693l-.952-2.897a12 12 0 0 1-.38-1.464h-.029a12 12 0 0 1-.381 1.464zm14.005-6.219v1.961h-3.029v8.429h-2.459v-8.429h-3.015v-1.961zm7.127 10.39-1.991-3.98h-1.492v3.98h-2.473v-10.39h4.565q1.917 0 2.861.849t.944 2.341q0 .996-.527 1.756-.526.761-1.507 1.098l2.298 4.346zm-3.483-8.649v2.971h1.595q1.727 0 1.727-1.522 0-1.449-1.727-1.449zm15.614 7.434q-1.39 1.464-3.731 1.464t-3.732-1.471q-1.39-1.47-1.39-3.973 0-2.502 1.39-3.973t3.732-1.471q2.341 0 3.731 1.471 1.39 1.47 1.391 3.973 0 2.502-1.391 3.98m-5.634-1.404q.688.936 1.903.936 1.214 0 1.895-.929.68-.93.68-2.583t-.68-2.583q-.681-.929-1.895-.929-1.215 0-1.903.929-.687.93-.688 2.583 0 1.639.688 2.576m8.532 2.619v-10.39h2.736l3.337 5.927q.468.878.629 1.346h.03q0-.19-.008-.629a42 42 0 0 1-.007-.703v-5.941h2.268v10.39h-2.634l-3.454-5.985q-.497-.937-.614-1.273h-.029q0 .204.007.658t.007.717v5.883z" aria-labelledby="Become a Patron"/></svg>